<mxfile host="app.diagrams.net" modified="2024-05-20T05:11:41.897Z" agent="Mozilla/5.0 (Windows NT 10.0; Win64; x64) AppleWebKit/537.36 (KHTML, like Gecko) Chrome/114.0.0.0 Safari/537.36" version="24.4.3" etag="prRqOANpP2qKEzlMRp03" type="github">
  <diagram name="Page-1" id="fugLXyr0FzHmSfTtq3j7">
    <mxGraphModel>
      <root>
        <mxCell id="0" />
        <mxCell id="1" parent="0" />
      </root>
    </mxGraphModel>
  </diagram>
</mxfile>
